<svg id="Original" xmlns="http://www.w3.org/2000/svg" viewBox="0 0 161 60"><defs><style>.cls-1{fill:#fff;}.cls-2{fill:#1f3a6a;}.cls-3{fill:#5dc4e9;}</style></defs><path class="cls-1" d="M2.6278,0H158.3721A2.6279,2.6279,0,0,1,161,2.6279V57.3722A2.6278,2.6278,0,0,1,158.3722,60H2.6278A2.6278,2.6278,0,0,1,0,57.3722V2.6278A2.6278,2.6278,0,0,1,2.6278,0Z"/><polygon class="cls-2" points="33.472 23.678 31.706 23.678 31.706 24.151 33.096 24.151 36.551 38.361 18.715 38.361 22.17 24.151 23.561 24.151 23.561 23.678 21.794 23.678 17.91 38.993 37.356 38.993 33.472 23.678"/><path class="cls-3" d="M31.0359,17.48H24.2305a.7523.7523,0,0,0-.7515.751v6.675h.632v-6.675a.121.121,0,0,1,.1195-.119h1.3684v4.85H24.3284l1.8205,1.9441h2.9684l1.82-1.9441H29.6672v-4.85h1.3687a.1211.1211,0,0,1,.12.119v6.675h.6311v-6.675A.7519.7519,0,0,0,31.0359,17.48Z"/><path class="cls-2" d="M26.2033,33.1512h2.86a.3231.3231,0,0,0,.3256-.3451l-.11-1.8738a.3722.3722,0,0,0-.366-.3452h-2.56a.3722.3722,0,0,0-.366.3452l-.11,1.8738A.3231.3231,0,0,0,26.2033,33.1512Z"/><path class="cls-2" d="M24.7759,30.5871H22.1927a.441.441,0,0,0-.4139.3389l-.38,1.8862a.2726.2726,0,0,0,.2776.339h2.88a.3845.3845,0,0,0,.3753-.3445l.16-1.8751A.3128.3128,0,0,0,24.7759,30.5871Z"/><path class="cls-2" d="M26.3186,29.842h2.6292a.2585.2585,0,0,0,.2605-.2761l-.0876-1.4991a.2977.2977,0,0,0-.2927-.2761H26.4385a.2977.2977,0,0,0-.2928.2761l-.0876,1.4991A.2585.2585,0,0,0,26.3186,29.842Z"/><path class="cls-2" d="M25.0968,27.7907h-2.416a.3529.3529,0,0,0-.3311.2712l-.3036,1.5089a.2181.2181,0,0,0,.222.2712h2.6531a.3075.3075,0,0,0,.3-.2756l.1284-1.5A.25.25,0,0,0,25.0968,27.7907Z"/><path class="cls-2" d="M32.9914,29.842a.2179.2179,0,0,0,.2218-.2711l-.3051-1.5091a.3534.3534,0,0,0-.3315-.2711H30.17a.25.25,0,0,0-.253.2756l.1283,1.5a.3076.3076,0,0,0,.3.2756Z"/><path class="cls-2" d="M26.4333,27.1343h2.4a.2262.2262,0,0,0,.2279-.2416l-.0676-1.1574a.26.26,0,0,0-.2562-.2416H26.5291a.26.26,0,0,0-.2561.2416l-.0677,1.1574A.2263.2263,0,0,0,26.4333,27.1343Z"/><path class="cls-2" d="M32.484,27.1343a.1906.1906,0,0,0,.1941-.2372l-.2358-1.1661a.3093.3093,0,0,0-.29-.2373H29.9261a.219.219,0,0,0-.2215.2412l.0991,1.1583a.2692.2692,0,0,0,.2627.2411Z"/><path class="cls-2" d="M25.34,25.4937H23.1031a.3089.3089,0,0,0-.29.2373l-.2346,1.1661a.1909.1909,0,0,0,.1944.2372H25.2a.2692.2692,0,0,0,.2627-.2411l.0991-1.1583A.219.219,0,0,0,25.34,25.4937Z"/><path class="cls-2" d="M33.5858,33.1512a.2723.2723,0,0,0,.2772-.3389l-.3814-1.8863a.4415.4415,0,0,0-.4142-.3389H30.4905a.3127.3127,0,0,0-.3163.3445l.1605,1.8751a.3845.3845,0,0,0,.3753.3445Z"/><path class="cls-2" d="M29.0346,34.0006H26.2318a.4466.4466,0,0,0-.4391.4143l-.1389,2.3767a.3877.3877,0,0,0,.3907.4142h3.1774a.3877.3877,0,0,0,.3907-.4142l-.1389-2.3767A.4466.4466,0,0,0,29.0346,34.0006Z"/><path class="cls-2" d="M24.4021,34.0006H21.58a.5294.5294,0,0,0-.4967.4068l-.4812,2.3917a.3271.3271,0,0,0,.3331.4067h3.1924a.4612.4612,0,0,0,.45-.4134l.2036-2.3784A.3754.3754,0,0,0,24.4021,34.0006Z"/><path class="cls-2" d="M34.18,34.4073a.53.53,0,0,0-.4971-.4067H30.8643a.3754.3754,0,0,0-.38.4134l.2036,2.3784a.4612.4612,0,0,0,.45.4134h3.1924a.3267.3267,0,0,0,.3327-.4067Z"/><path class="cls-2" d="M69.7756,23.6806H67.0827V38.993h2.6929ZM61.025,31.4377a6.1737,6.1737,0,0,1-.8851,3.2872,3.9846,3.9846,0,0,1-6.3006,1.0105,6.1844,6.1844,0,0,1-1.3938-4.42,5.7235,5.7235,0,0,1,1.7782-4.6114,3.47,3.47,0,0,1,2.3986-.9787,4.2054,4.2054,0,0,1,2.54.941c1.9505,1.63,1.8626,4.6228,1.8626,4.7711m1.3733,11.8416C63.5389,41.7726,63.629,40.2088,63.7111,37l-.0342-13.32h-2.564v2.3655a6.3433,6.3433,0,0,0-1.2364-1.4428,5.443,5.443,0,0,0-3.6613-1.2227A6.2182,6.2182,0,0,0,51.07,26.1169a8.9823,8.9823,0,0,0-1.5182,5.3208,10.5934,10.5934,0,0,0,.454,3.229A7.1578,7.1578,0,0,0,52.15,38.0383a5.7388,5.7388,0,0,0,4.0651,1.2729,6.38,6.38,0,0,0,3.6613-1.3288,5.6665,5.6665,0,0,0,1.0311-1.1543l-.0217,2.101a7.2589,7.2589,0,0,1-.3559,2.0394,3.3111,3.3111,0,0,1-.6866,1.1611,4.2847,4.2847,0,0,1-3.4822,1.3573,12.2742,12.2742,0,0,1-3.8963-.65A9.0152,9.0152,0,0,1,50.9525,42.1l-.2852,2.6667c.4312.1734.7482.2909,1.2079.4483a14.7866,14.7866,0,0,0,4.3126.6467,8.8467,8.8467,0,0,0,4.3776-.98,5.4736,5.4736,0,0,0,1.8329-1.6025m4.5042-23.2418h2.9484V17.0149H66.9025Zm12.8739,5.9162a5.1805,5.1805,0,0,1,1.8557.3662V23.63c-.1357,0-.9615-.1278-1.6482-.1278a4.4635,4.4635,0,0,0-3.6065,1.5706,10.51,10.51,0,0,0-.7482,1.16l-.138-2.5526H72.9157c.0821,1.92.1517,3.2575.1517,5.1486,0,2.2184-.0422,3.7833-.0422,5.98v4.1814H75.806V31.4959c.0832-1.452.1676-3.3739,1.6561-4.68a3.3627,3.3627,0,0,1,2.3143-.8623m14.076,5.2354c0,1.6732-.52,4.1243-2.5755,5.2843a4.4135,4.4135,0,0,1-3.9772.1209,5.3716,5.3716,0,0,1-.7505-.4836,4.9464,4.9464,0,0,1-1.4543-2.012,7.0486,7.0486,0,0,1-.5087-2.961,5.8837,5.8837,0,0,1,1.8558-4.4072,4.5545,4.5545,0,0,1,3.0077-1.095,4.19,4.19,0,0,1,3.9408,2.9005,7.9149,7.9149,0,0,1,.4619,2.6531m.5988,6.1169a8.5339,8.5339,0,0,0,2.2527-6.1683,7.7572,7.7572,0,0,0-3.918-6.9884,7.9991,7.9991,0,0,0-10.0326,2.8755,9.1367,9.1367,0,0,0-1.0653,4.357A7.8819,7.8819,0,0,0,84.0638,37.54a7.575,7.575,0,0,0,.9752.7128,7.1724,7.1724,0,0,0,4.1142,1.03,7.6133,7.6133,0,0,0,3.2358-.5977,6.7642,6.7642,0,0,0,2.0622-1.379"/><path class="cls-2" d="M99.0778,26.9357c.0821,2.96.0821,5.0642.0821,8.0388,0,3.71-.0616,7.423-.0821,11.1288h2.734V36.9216a8.0381,8.0381,0,0,0,.8646.974,5.6046,5.6046,0,0,0,3.773,1.3892,6.5451,6.5451,0,0,0,4.835-2.0986,8.9586,8.9586,0,0,0,2.0976-6.2732,10.0282,10.0282,0,0,0-.6136-3.3568,6.2539,6.2539,0,0,0-6.0874-4.2316,5.8733,5.8733,0,0,0-4.0867,1.5774,5.6962,5.6962,0,0,0-.9468,1.1166l-.1185-2.3381H98.9523C99.0231,24.902,99.0345,25.7255,99.0778,26.9357Zm2.6861,4.2692a7.5573,7.5573,0,0,1,.3148-2.134,4.4157,4.4157,0,0,1,4.1415-3.3454,4.084,4.084,0,0,1,3.724,2.5218,6.6325,6.6325,0,0,1,.5646,3.1344,7.1187,7.1187,0,0,1-.398,2.361,4.23,4.23,0,0,1-4.0069,3.123,4.319,4.319,0,0,1-4.0252-3.2838A7.9056,7.9056,0,0,1,101.7639,31.2049Z"/><path class="cls-2" d="M141.5923,23.679l-3.4147,8.2876L136.6335,35.98l-.1063.2163c-.388-1.1489-.9227-2.5825-1.4109-3.9447l-3.1655-8.573h-2.9383l6.15,15.3093-2.9968,7.115h2.7418L144.493,23.679Z"/><path class="cls-2" d="M127.001,25.6638c-.7983-1.3366-2.8574-2.2778-5.2617-2.2778a8.2752,8.2752,0,0,0-4.8018,1.2937v2.4065a8.8433,8.8433,0,0,1,4.2864-1.4508,3.9957,3.9957,0,0,1,3.7,2.069,6.336,6.336,0,0,1,.2762,2.02c-.7084-.0351-1.4636-.064-2.1993-.064a12.489,12.489,0,0,0-5.1431.8042,4.3476,4.3476,0,0,0-2.7807,4.1028,4.653,4.653,0,0,0,1.5455,3.5548,5.3427,5.3427,0,0,0,3.1811,1.0816,7.0082,7.0082,0,0,0,4.0026-1.0175,10.5788,10.5788,0,0,0,1.622-1.6262v2.43h2.3393V29.1061A6.8379,6.8379,0,0,0,127.001,25.6638Zm-1.7337,6.43a6.94,6.94,0,0,1-.2325,2.0689,3.9845,3.9845,0,0,1-.6855,1.3082,4.3337,4.3337,0,0,1-3.4665,1.6218c-1.2592,0-2.9347-.6555-2.9347-2.4532,0-1.785,2.0831-2.7267,3.238-2.9191a11.89,11.89,0,0,1,2.0237-.1251c.6856,0,1.3723.0206,2.0575.0785Z"/></svg>