<?xml version="1.0" encoding="UTF-8" standalone="no"?>
<svg xmlns="http://www.w3.org/2000/svg" viewBox="0 0 191.8 77.2" style="enable-background:new 0 0 191.8 77.2" xml:space="preserve"><path d="M0 20.7C0 8 8.7 0 20.2 0c11.6 0 20.2 7.9 20.2 20.6s-8.6 20.7-20.2 20.7C8.7 41.3 0 33.4 0 20.7zm32.2 0c0-8.6-5.3-13.6-11.9-13.6-6.7 0-12 5-12 13.6s5.3 13.6 12 13.6c6.6 0 11.9-5.1 11.9-13.6zM76.8.4v40.5h-7.7L50.6 12.7v28.2h-8V.4h7.6l18.5 28.3V.4h8.1zm32.3 33.4v7.1h-28V.4h8.1v33.3h19.9v.1zM112.6.4h8.1v40.5h-8.1V.4zm46.3 0v40.5h-7.7l-18.5-28.2v28.2h-8V.4h7.6l18.5 28.3V.4h8.1zm32.7 33.7v6.8H163V.4h28.2v6.8h-20.1v9.7h17.8v6.7h-17.8v10.6l20.5-.1z" style="fill:#062a2f"/><path d="M18.9 54.1v13.8c0 5.8-3.6 9.2-9.3 9.2-5.9 0-9.4-3.5-9.4-9.2V54.1h4.1v13.8c0 3.8 1.9 5.7 5.3 5.7s5.3-1.9 5.3-5.7V54.1h4zm-10.3-4c0 1.3-.9 2.2-2.2 2.2s-2.3-.9-2.3-2.2.9-2.2 2.3-2.2 2.2.9 2.2 2.2zm6.5 0c0 1.3-.9 2.2-2.3 2.2-1.3 0-2.2-.9-2.2-2.2s.9-2.2 2.2-2.2c1.4 0 2.3.9 2.3 2.2zm23.8 20.6c0 3.8-2.8 6.3-6.9 6.3H21.9V54.1h9.8c4 0 6.4 2.5 6.4 5.7s-2.1 4.7-3.3 5.1v.1c2 .5 4.1 2.4 4.1 5.7zm-8.3-13.4h-4.7v6.4h4.7c2.2 0 3.4-1.3 3.4-3.2 0-2.1-1.2-3.2-3.4-3.2zm4.2 12.9c0-2.3-1.5-3.5-3.8-3.5h-5.1v7h5.3c2.2 0 3.6-1.1 3.6-3.5zm22.7 3.3V77H41.6V54.1h15.7v3.5H45.7v6h10.4V67H45.7v6.6h11.8v-.1zm21.4 3.3c-.6.2-1.3.3-2.2.3-3.2 0-4.4-1.5-5.6-3.7l-2.7-5.1h-4v8.6h-4.1V54.1h8.9c4.9 0 8 2.5 8 7.2 0 3.3-1.7 5.5-4.4 6.5l2.3 4.5c.6 1.2 1.4 1.5 2.2 1.5.6 0 1-.1 1.3-.2l.3 3.2zM64.4 65.1h4.8c2.6 0 3.9-1.6 3.9-3.8 0-2.2-1.3-3.8-3.9-3.8h-4.8v7.6zm45.1-11L103.1 77h-4.5l-4.5-18.1L89.6 77H85l-6.4-22.9h4.1L87.4 73 92 54.1h4.3l4.6 18.8 4.7-18.8h3.9zm17.1 19.4V77h-15.9V54.1h15.7v3.5h-11.6v6h10.4V67h-10.4v6.6h11.8v-.1zm2.8-19.4h4.1V77h-4.1V54.1zm23.7 16.7c0 3.9-3.6 6.4-8.9 6.4-5.6 0-8.9-2.5-8.9-7h4.1c0 2.2 1.7 3.5 5 3.5 2.9 0 4.6-1.1 4.6-3 0-5.6-13.2-1.3-13.2-10.4 0-3.9 3.4-6.5 8.5-6.5 5.2 0 8.4 2.6 8.4 6.9h-4.1c0-2.3-1.6-3.4-4.4-3.4-3 0-4.4 1.1-4.4 2.9.1 5.4 13.3 1.1 13.3 10.6zm17.7 2.7V77h-15.9V54.1h15.7v3.5H159v6h10.4V67H159v6.6h11.8v-.1zm21-19.4V77h-3.9L177 60.3V77h-4V54.1h3.9l10.9 16.8V54.1h4z" style="fill:#f89572"/></svg>